HIERARCHY
ROOT Hips
{
	OFFSET 0.000000 0.000000 0.000000
	CHANNELS 6 Xposition Yposition Zposition Zrotation Yrotation Xrotation 
	JOINT LHipJoint
	{
		OFFSET 0.000000 0.000000 0.000000
		CHANNELS 3 Zrotation Yrotation Xrotation
		JOINT LeftUpLeg
		{
			OFFSET 1.363060 -1.794630 0.839290
			CHANNELS 3 Zrotation Yrotation Xrotation
			JOINT LeftLeg
			{
				OFFSET 2.448110 -6.726130 0.000000
				CHANNELS 3 Zrotation Yrotation Xrotation
				JOINT LeftFoot
				{
					OFFSET 2.562200 -7.039590 0.000000
					CHANNELS 3 Zrotation Yrotation Xrotation
					JOINT LeftToeBase
					{
						OFFSET 0.157640 -0.433110 2.322550
						CHANNELS 3 Zrotation Yrotation Xrotation
						End Site
						{
							OFFSET 0.000000 0.000000 0.000000
						}
					}
				}
			}
		}
	}
	JOINT RHipJoint
	{
		OFFSET 0.000000 0.000000 0.000000
		CHANNELS 3 Zrotation Yrotation Xrotation
		JOINT RightUpLeg
		{
			OFFSET -1.305520 -1.794630 0.839290
			CHANNELS 3 Zrotation Yrotation Xrotation
			JOINT RightLeg
			{
				OFFSET -2.542530 -6.985550 0.000000
				CHANNELS 3 Zrotation Yrotation Xrotation
				JOINT RightFoot
				{
					OFFSET -2.568260 -7.056230 0.000000
					CHANNELS 3 Zrotation Yrotation Xrotation
					JOINT RightToeBase
					{
						OFFSET -0.164730 -0.452590 2.363150
						CHANNELS 3 Zrotation Yrotation Xrotation
						End Site
						{
							OFFSET 0.000000 0.000000 0.000000
						}
					}
				}
			}
		}
	}
	JOINT LowerBack
	{
		OFFSET 0.000000 0.000000 0.000000
		CHANNELS 3 Zrotation Yrotation Xrotation
		JOINT Spine
		{
			OFFSET 0.028270 2.035590 -0.193380
			CHANNELS 3 Zrotation Yrotation Xrotation
			JOINT Spine1
			{
				OFFSET 0.056720 2.048850 -0.042750
				CHANNELS 3 Zrotation Yrotation Xrotation
				JOINT Neck
				{
					OFFSET 0.000000 0.000000 0.000000
					CHANNELS 3 Zrotation Yrotation Xrotation
					JOINT Neck1
					{
						OFFSET -0.054170 1.746240 0.172020
						CHANNELS 3 Zrotation Yrotation Xrotation
						JOINT Head
						{
							OFFSET 0.104070 1.761360 -0.123970
							CHANNELS 3 Zrotation Yrotation Xrotation
							End Site
							{
								OFFSET 0.000000 0.000000 0.000000
							}
						}
					}
				}
				JOINT LeftShoulder
				{
					OFFSET 0.000000 0.000000 0.000000
					CHANNELS 3 Zrotation Yrotation Xrotation
					JOINT LeftArm
					{
						OFFSET 3.362410 1.200890 -0.311210
						CHANNELS 3 Zrotation Yrotation Xrotation
						JOINT LeftForeArm
						{
							OFFSET 4.983000 -0.000000 -0.000000
							CHANNELS 3 Zrotation Yrotation Xrotation
							JOINT LeftHand
							{
								OFFSET 3.483560 -0.000000 -0.000000
								CHANNELS 3 Zrotation Yrotation Xrotation
								JOINT LeftFingerBase
								{
									OFFSET 0.000000 0.000000 0.000000
									CHANNELS 3 Zrotation Yrotation Xrotation
									JOINT LeftHandIndex1
									{
										OFFSET 0.715260 -0.000000 -0.000000
										CHANNELS 3 Zrotation Yrotation Xrotation
										End Site
										{
											OFFSET 0.000000 0.000000 0.000000
										}
									}
								}
								JOINT LThumb
								{
									OFFSET 0.000000 0.000000 0.000000
									CHANNELS 3 Zrotation Yrotation Xrotation
									End Site
									{
										OFFSET 0.000000 0.000000 0.000000
									}
								}
							}
						}
					}
				}
				JOINT RightShoulder
				{
					OFFSET 0.000000 0.000000 0.000000
					CHANNELS 3 Zrotation Yrotation Xrotation
					JOINT RightArm
					{
						OFFSET -3.136600 1.374050 -0.404650
						CHANNELS 3 Zrotation Yrotation Xrotation
						JOINT RightForeArm
						{
							OFFSET -5.241900 -0.000000 -0.000000
							CHANNELS 3 Zrotation Yrotation Xrotation
							JOINT RightHand
							{
								OFFSET -3.444170 -0.000000 -0.000000
								CHANNELS 3 Zrotation Yrotation Xrotation
								JOINT RightFingerBase
								{
									OFFSET 0.000000 0.000000 0.000000
									CHANNELS 3 Zrotation Yrotation Xrotation
									JOINT RightHandIndex1
									{
										OFFSET -0.622530 -0.000000 -0.000000
										CHANNELS 3 Zrotation Yrotation Xrotation
										End Site
										{
											OFFSET 0.000000 0.000000 0.000000
										}
									}
								}
								JOINT RThumb
								{
									OFFSET 0.000000 0.000000 0.000000
									CHANNELS 3 Zrotation Yrotation Xrotation
									End Site
									{
										OFFSET 0.000000 0.000000 0.000000
									}
								}
							}
						}
					}
				}
			}
		}
	}
}
MOTION
Frames: 4
Frame Time: 0.008333
10.232957 18.053310 3.890261 -3.129941 -11.109440 8.954183 -0.619544 -2.617155 -4.810844 -11.243432 5.636500 -38.470892 -1.192723 11.431566 24.107413 -2.387504 15.561749 25.379461 0.057600 -1.549200 -4.261300 1.378141 -3.154647 5.512623 14.985161 2.578813 9.682416 2.362362 -4.148229 16.117117 -2.100160 -0.198574 29.588524 -0.599900 4.958000 -13.788900 0.999281 5.728578 -5.300723 0.452376 6.623157 -4.861143 4.392841 4.181097 6.727959 -10.337881 -6.367105 -14.368916 6.232496 -6.704440 8.201829 6.259300 -3.503900 10.718300 -1.382257 -4.692687 -0.933857 -83.273988 25.508641 12.362493 2.908084 -11.760492 -0.889428 0.483967 1.358473 18.472307 2.392499 -19.869023 -0.861100 -7.125000 0.000000 0.000000 -16.586600 9.334200 14.306100 -0.631655 7.418701 0.966263 70.829879 0.066846 43.946849 -31.897500 37.284163 -15.040414 2.554339 3.358860 -24.171553 -35.435319 -25.295570 19.932300 7.125000 0.000000 0.000000 -11.539800 -62.321000 4.893700
10.252931 18.055334 4.033018 -2.986076 -11.059843 8.820000 -0.635571 -2.594426 -4.689071 -11.589545 5.820671 -38.441530 -1.120418 11.565547 24.692644 -2.187482 14.886688 25.199457 0.037718 -1.223661 -3.364859 1.374309 -3.100038 5.443263 14.712716 2.027872 8.941129 2.059201 -4.770537 17.791294 -2.128700 -0.526791 30.654620 -0.683143 5.277167 -14.702450 0.860058 5.672346 -5.114640 0.453877 6.572541 -4.895903 4.420046 4.146130 6.461041 -10.383530 -6.372559 -14.298319 6.229540 -6.696742 8.266707 6.263902 -3.517587 10.816174 -1.371897 -4.746471 -0.955173 -83.352431 25.507570 12.412779 2.930100 -11.771891 -0.895763 0.498871 1.374286 18.303703 2.357802 -20.077589 -0.852133 -7.125000 0.000000 0.000000 -16.607779 9.118393 14.401201 -0.653361 7.456669 0.941814 71.020902 -0.384122 44.089284 -31.756968 37.218761 -14.990941 2.577400 3.470107 -25.056063 -36.588163 -25.821123 21.092630 7.125000 0.000000 0.000000 -13.290147 -63.236674 5.962881
10.272348 18.062035 4.177110 -2.777017 -11.017936 8.696518 -0.660747 -2.572825 -4.563802 -11.978196 5.959816 -38.384135 -1.056705 11.693261 25.267974 -2.006036 14.218446 24.917649 0.021453 -0.936013 -2.572949 1.370453 -3.044132 5.363811 14.366251 1.489266 8.144016 1.735986 -5.403908 19.512138 -2.162962 -0.825971 31.671976 -0.769085 5.595705 -15.616792 0.656381 5.616676 -4.994910 0.447374 6.526565 -4.920646 4.441384 4.111046 6.264304 -10.407158 -6.369230 -14.226864 6.230803 -6.685192 8.304817 6.266722 -3.522926 10.868925 -1.372648 -4.789586 -0.966374 -83.383221 25.459740 12.500271 2.958073 -11.797826 -0.904003 0.512172 1.385623 18.137420 2.313735 -20.244951 -0.837876 -7.125000 0.000000 0.000000 -16.636282 8.947206 14.487828 -0.665181 7.481665 0.920413 71.217497 -0.777494 44.177323 -31.508782 37.052497 -14.814815 2.581659 3.492383 -25.713855 -36.922987 -25.637206 21.205271 7.125000 0.000000 0.000000 -13.840848 -63.088665 6.193454
10.290495 18.079399 4.324241 -2.419375 -10.993553 8.597426 -0.706773 -2.553796 -4.430562 -12.463797 5.996347 -38.262853 -1.012577 11.806690 25.820741 -1.866923 13.565742 24.403823 0.013430 -0.734719 -2.019273 1.366545 -2.985270 5.261358 13.851091 0.978769 7.219672 1.367069 -6.062493 21.339340 -2.210268 -1.058970 32.578250 -0.861177 5.912808 -16.532938 0.305807 5.562287 -5.026400 0.422626 6.491163 -4.922560 4.449354 4.075697 6.227517 -10.380597 -6.345888 -14.153451 6.241683 -6.664860 8.281919 6.265483 -3.509239 10.818838 -1.398718 -4.808390 -0.954523 -83.305404 25.305344 12.672558 2.999623 -11.856891 -0.916586 0.521818 1.386756 17.976429 2.248314 -20.318405 -0.811564 -7.125000 0.000000 0.000000 -16.681472 8.877709 14.555143 -0.654469 7.477098 0.905958 71.426792 -1.039599 44.141389 -31.015241 36.656361 -14.350039 2.543064 3.311892 -25.854942 -35.393490 -23.836359 18.930156 7.125000 0.000000 0.000000 -11.657472 -60.516447 4.512782
